<?xml version="1.0" encoding="utf-8" standalone="no"?><!DOCTYPE svg PUBLIC "-//W3C//DTD SVG 20010904//EN" "http://www.w3.org/TR/2001/REC-SVG-20010904/DTD/svg10.dtd"><svg xmlns="http://www.w3.org/2000/svg" width="1156" height="760" xmlns:xlink="http://www.w3.org/1999/xlink"><source><![CDATA[Title: Sequence of recursive calls
f(3)->return f(2)+f(1): Recursion step
return f(2)+f(1)->f(1): Recursion step
f(1)-->>return f(2)+f(1): return 1
return f(2)+f(1)->f(2): Recursion step

f(2)->return f(1)+f(0): Recursion step
return f(1)+f(0)->f(1): Recursion step
Note left of return f(1)+f(0): Calling another instance of the function for calculation f(1)
f(1)-->>return f(1)+f(0): return 1
return f(1)+f(0)->f(0): Recursion step
f(0)-->>return f(1)+f(0): return 0
return f(1)+f(0)-->>f(2): return 1+0
f(2)-->>return f(2)+f(1): return 1+0
return f(2)+f(1)-->>f(3): return 1+1
]]></source><desc>Sequence of recursive calls</desc><defs><marker viewBox="0 0 5 5" markerWidth="5" markerHeight="5" orient="auto" refX="5" refY="2.5" id="markerArrowBlock"><path d="M 0 0 L 5 2.5 L 0 5 z"></path></marker><marker viewBox="0 0 9.6 16" markerWidth="4" markerHeight="16" orient="auto" refX="9.6" refY="8" id="markerArrowOpen"><path d="M 9.6,8 1.92,16 0,13.7 5.76,8 0,2.286 1.92,0 9.6,8 z"></path></marker></defs><g class="title"><path d="M10,10C159.9,0.3 146.6,19.7 251.4,10.0C253.1,43.9 249.7,39.6 251.4,52.0C207.6,61.7 193.5,42.3 10.0,52.0C11.7,45.3 8.3,26.5 10.0,10.0" style="stroke-width: 2px;" stroke="#000000" fill="#ffffff"></path><text x="16" y="32" style="font-size: 16px; font-family: danielbd;"><tspan x="15">Sequence of recursive calls</tspan></text></g><g class="actor"><path d="M10,62C22.6,64.1 38.4,59.9 62.7,62.0C61.1,68.4 64.3,82.5 62.7,102.0C31.3,104.1 54.2,99.9 10.0,102.0C11.6,71.6 8.4,71.0 10.0,62.0" style="stroke-width: 2px;" stroke="#000000" fill="#ffffff"></path><text x="20" y="89" style="font-size: 16px; font-family: danielbd;"><tspan x="20">f(3)</tspan></text></g><g class="actor"><path d="M10,700C41.4,702.1 43.7,697.9 62.7,700.0C64.3,709.6 61.1,710.0 62.7,740.0C27.4,737.9 54.2,742.1 10.0,740.0C11.6,713.0 8.4,719.3 10.0,700.0" style="stroke-width: 2px;" stroke="#000000" fill="#ffffff"></path><text x="20" y="727" style="font-size: 16px; font-family: danielbd;"><tspan x="20">f(3)</tspan></text></g><path d="M36.3,102.0C60.3,245.5 12.4,475.2 36.3,700.0" style="stroke-width: 2px;" stroke="#000000" fill="none"></path><g class="actor"><path d="M106.70000267028809,62C130.8,68.0 192.0,56.0 257.0,62.0C255.4,92.4 258.6,78.4 257.0,102.0C187.6,108.0 130.8,96.0 106.7,102.0C108.3,88.6 105.1,90.3 106.7,62.0" style="stroke-width: 2px;" stroke="#000000" fill="#ffffff"></path><text x="116.70000267028809" y="89" style="font-size: 16px; font-family: danielbd;"><tspan x="116.70000267028809">return f(2)+f(1)</tspan></text></g><g class="actor"><path d="M106.70000267028809,700C150.1,706.0 139.8,694.0 257.0,700.0C255.4,722.7 258.6,727.8 257.0,740.0C130.8,746.0 172.8,734.0 106.7,740.0C108.3,709.6 105.1,722.4 106.7,700.0" style="stroke-width: 2px;" stroke="#000000" fill="#ffffff"></path><text x="116.70000267028809" y="727" style="font-size: 16px; font-family: danielbd;"><tspan x="116.70000267028809">return f(2)+f(1)</tspan></text></g><path d="M181.9,102.0C205.8,197.7 157.9,245.5 181.9,700.0" style="stroke-width: 2px;" stroke="#000000" fill="none"></path><g class="actor"><path d="M304.7749996185303,62C315.6,63.8 326.0,60.2 350.0,62.0C348.4,92.4 351.6,85.3 350.0,102.0C315.6,103.8 313.8,100.2 304.8,102.0C303.2,75.0 306.4,71.6 304.8,62.0" style="stroke-width: 2px;" stroke="#000000" fill="#ffffff"></path><text x="314.7749996185303" y="89" style="font-size: 16px; font-family: danielbd;"><tspan x="314.7749996185303">f(1)</tspan></text></g><g class="actor"><path d="M304.7749996185303,700C341.6,701.8 312.0,698.2 350.0,700.0C351.6,709.6 348.4,730.4 350.0,740.0C327.9,738.2 342.8,741.8 304.8,740.0C306.4,730.4 303.2,724.7 304.8,700.0" style="stroke-width: 2px;" stroke="#000000" fill="#ffffff"></path><text x="314.7749996185303" y="727" style="font-size: 16px; font-family: danielbd;"><tspan x="314.7749996185303">f(1)</tspan></text></g><path d="M327.4,102.0C303.5,556.5 351.3,516.6 327.4,700.0" style="stroke-width: 2px;" stroke="#000000" fill="none"></path><g class="actor"><path d="M370.0249996185303,62C410.5,59.9 402.1,64.1 422.9,62.0C421.3,94.6 424.5,91.0 422.9,102.0C383.3,104.1 378.5,99.9 370.0,102.0C368.4,72.2 371.6,92.4 370.0,62.0" style="stroke-width: 2px;" stroke="#000000" fill="#ffffff"></path><text x="380.0249996185303" y="89" style="font-size: 16px; font-family: danielbd;"><tspan x="380.0249996185303">f(2)</tspan></text></g><g class="actor"><path d="M370.0249996185303,700C382.7,697.9 392.7,702.1 422.9,700.0C421.3,730.4 424.5,714.5 422.9,740.0C390.4,742.1 388.5,737.9 370.0,740.0C368.4,716.2 371.6,714.8 370.0,700.0" style="stroke-width: 2px;" stroke="#000000" fill="#ffffff"></path><text x="380.0249996185303" y="727" style="font-size: 16px; font-family: danielbd;"><tspan x="380.0249996185303">f(2)</tspan></text></g><path d="M396.5,102.0C372.5,245.5 420.4,403.2 396.5,700.0" style="stroke-width: 2px;" stroke="#000000" fill="none"></path><g class="actor"><path d="M875.0083236694336,62C899.7,68.2 940.0,55.8 1029.3,62.0C1027.7,71.6 1030.9,68.4 1029.3,102.0C1004.6,95.8 907.4,108.2 875.0,102.0C876.6,71.6 873.4,76.4 875.0,62.0" style="stroke-width: 2px;" stroke="#000000" fill="#ffffff"></path><text x="885.0083236694336" y="89" style="font-size: 16px; font-family: danielbd;"><tspan x="885.0083236694336">return f(1)+f(0)</tspan></text></g><g class="actor"><path d="M875.0083236694336,700C916.9,693.8 957.6,706.2 1029.3,700.0C1030.9,730.4 1027.7,719.3 1029.3,740.0C992.2,746.2 1004.6,733.8 875.0,740.0C876.6,722.6 873.4,722.7 875.0,700.0" style="stroke-width: 2px;" stroke="#000000" fill="#ffffff"></path><text x="885.0083236694336" y="727" style="font-size: 16px; font-family: danielbd;"><tspan x="885.0083236694336">return f(1)+f(0)</tspan></text></g><path d="M952.1,102.0C928.2,556.5 976.1,397.0 952.1,700.0" style="stroke-width: 2px;" stroke="#000000" fill="none"></path><g class="actor"><path d="M1069.2666568756104,62C1117.0,59.7 1079.6,64.3 1126.1,62.0C1124.5,71.6 1127.7,77.7 1126.1,102.0C1109.1,99.7 1101.6,104.3 1069.3,102.0C1067.7,81.4 1070.9,68.4 1069.3,62.0" style="stroke-width: 2px;" stroke="#000000" fill="#ffffff"></path><text x="1079.2666568756104" y="89" style="font-size: 16px; font-family: danielbd;"><tspan x="1079.2666568756104">f(0)</tspan></text></g><g class="actor"><path d="M1069.2666568756104,700C1115.7,697.7 1078.4,702.3 1126.1,700.0C1127.7,712.6 1124.5,718.3 1126.1,740.0C1082.9,742.3 1078.4,737.7 1069.3,740.0C1070.9,706.4 1067.7,730.4 1069.3,700.0" style="stroke-width: 2px;" stroke="#000000" fill="#ffffff"></path><text x="1079.2666568756104" y="727" style="font-size: 16px; font-family: danielbd;"><tspan x="1079.2666568756104">f(0)</tspan></text></g><path d="M1097.7,102.0C1121.6,482.8 1073.7,197.7 1097.7,700.0" style="stroke-width: 2px;" stroke="#000000" fill="none"></path><g class="signal"><text x="46.33333396911621" y="128" style="font-size: 16px; font-family: danielbd;"><tspan x="46.33333396911621">Recursion step</tspan></text><path d="M36.3,150.0C114.3,155.8 71.3,144.2 181.9,150.0" style="stroke-width: 2px; marker-end: url(&quot;#markerArrowBlock&quot;);" stroke="#000000" fill="none"></path></g><g class="signal"><text x="191.86666679382324" y="176" style="font-size: 16px; font-family: danielbd;"><tspan x="191.86666679382324">Recursion step</tspan></text><path d="M181.9,198.0C292.5,203.8 245.5,192.2 327.4,198.0" style="stroke-width: 2px; marker-end: url(&quot;#markerArrowBlock&quot;);" stroke="#000000" fill="none"></path></g><g class="signal"><text x="220.24166679382324" y="229" style="font-size: 16px; font-family: danielbd;"><tspan x="220.24166679382324">return 1</tspan></text><path d="M327.4,236.0C248.7,241.8 279.6,230.2 181.9,236.0" style="stroke-width: 2px; stroke-dasharray: 6px, 2px; marker-end: url(&quot;#markerArrowOpen&quot;);" stroke="#000000" fill="none"></path></g><g class="signal"><text x="226.4000005722046" y="262" style="font-size: 16px; font-family: danielbd;"><tspan x="226.4000005722046">Recursion step</tspan></text><path d="M181.9,284.0C362.1,275.4 303.5,292.6 396.5,284.0" style="stroke-width: 2px; marker-end: url(&quot;#markerArrowBlock&quot;);" stroke="#000000" fill="none"></path></g><g class="signal"><text x="611.5333290100098" y="310" style="font-size: 16px; font-family: danielbd;"><tspan x="611.5333290100098">Recursion step</tspan></text><path d="M396.5,332.0C529.8,309.8 666.2,354.2 952.1,332.0" style="stroke-width: 2px; marker-end: url(&quot;#markerArrowBlock&quot;);" stroke="#000000" fill="none"></path></g><g class="signal"><text x="576.9999952316284" y="358" style="font-size: 16px; font-family: danielbd;"><tspan x="576.9999952316284">Recursion step</tspan></text><path d="M952.1,380.0C427.4,405.0 679.2,355.0 327.4,380.0" style="stroke-width: 2px; marker-end: url(&quot;#markerArrowBlock&quot;);" stroke="#000000" fill="none"></path></g><g class="note"><path d="M416.46666717529297,400C540.2,420.6 526.1,379.4 932.1,400.0C933.8,410.7 930.5,431.9 932.1,442.0C797.6,421.4 619.1,462.6 416.5,442.0C418.1,435.3 414.8,406.7 416.5,400.0" style="stroke-width: 2px;" stroke="#000000" fill="#ffffff"></path><text x="421.46666717529297" y="422" style="font-size: 16px; font-family: danielbd;"><tspan x="421.46666717529297">Calling another instance of the function for calculation f(1)</tspan></text></g><g class="signal"><text x="605.3749952316284" y="473" style="font-size: 16px; font-family: danielbd;"><tspan x="605.3749952316284">return 1</tspan></text><path d="M327.4,480.0C427.4,455.0 846.3,505.0 952.1,480.0" style="stroke-width: 2px; stroke-dasharray: 6px, 2px; marker-end: url(&quot;#markerArrowOpen&quot;);" stroke="#000000" fill="none"></path></g><g class="signal"><text x="962.1333236694336" y="506" style="font-size: 16px; font-family: danielbd;"><tspan x="962.1333236694336">Recursion step</tspan></text><path d="M952.1,528.0C975.4,533.8 1069.2,522.2 1097.7,528.0" style="stroke-width: 2px; marker-end: url(&quot;#markerArrowBlock&quot;);" stroke="#000000" fill="none"></path></g><g class="signal"><text x="984.5916557312012" y="559" style="font-size: 16px; font-family: danielbd;"><tspan x="984.5916557312012">return 0</tspan></text><path d="M1097.7,566.0C1031.6,560.2 979.7,571.8 952.1,566.0" style="stroke-width: 2px; stroke-dasharray: 6px, 2px; marker-end: url(&quot;#markerArrowOpen&quot;);" stroke="#000000" fill="none"></path></g><g class="signal"><text x="628.1166610717773" y="597" style="font-size: 16px; font-family: danielbd;"><tspan x="628.1166610717773">return 1+0</tspan></text><path d="M952.1,604.0C863.2,626.2 818.8,581.8 396.5,604.0" style="stroke-width: 2px; stroke-dasharray: 6px, 2px; marker-end: url(&quot;#markerArrowOpen&quot;);" stroke="#000000" fill="none"></path></g><g class="signal"><text x="242.98333263397217" y="635" style="font-size: 16px; font-family: danielbd;"><tspan x="242.98333263397217">return 1+0</tspan></text><path d="M396.5,642.0C362.1,633.4 218.8,650.6 181.9,642.0" style="stroke-width: 2px; stroke-dasharray: 6px, 2px; marker-end: url(&quot;#markerArrowOpen&quot;);" stroke="#000000" fill="none"></path></g><g class="signal"><text x="68.83333396911621" y="673" style="font-size: 16px; font-family: danielbd;"><tspan x="68.83333396911621">return 1+1</tspan></text><path d="M181.9,680.0C135.7,685.8 72.1,674.2 36.3,680.0" style="stroke-width: 2px; stroke-dasharray: 6px, 2px; marker-end: url(&quot;#markerArrowOpen&quot;);" stroke="#000000" fill="none"></path></g></svg>